<?xml version="1.0" encoding="utf-8"?>
<!-- Generator: Adobe Illustrator 15.0.0, SVG Export Plug-In . SVG Version: 6.00 Build 0)  -->
<!DOCTYPE svg PUBLIC "-//W3C//DTD SVG 1.1//EN" "http://www.w3.org/Graphics/SVG/1.1/DTD/svg11.dtd">
<svg version="1.1" id="Layer_1" xmlns="http://www.w3.org/2000/svg" xmlns:xlink="http://www.w3.org/1999/xlink" x="0px" y="0px"
	 width="25px" height="25px" viewBox="0 0 50 50" enable-background="new 0 0 50 50" xml:space="preserve">
<path fill="#FFFFFF" d="M42.655,23.173L24.999,40.577L7.342,23.17c-1.106-1.099-2.904-1.099-4.011,0s-1.107,2.877,0,3.973
	l19.663,19.382c1.064,1.053,2.944,1.06,4.015,0L46.67,27.141c1.107-1.097,1.107-2.877,0-3.973
	C45.561,22.075,43.763,22.075,42.655,23.173z"/>
<path fill="#FFFFFF" d="M22.993,26.861c1.064,1.054,2.944,1.06,4.015,0L46.67,7.48c1.107-1.099,1.107-2.877,0-3.973
	c-1.107-1.099-2.904-1.099-4.012,0l-17.66,17.403L7.342,3.508c-1.107-1.099-2.905-1.099-4.012,0s-1.107,2.876,0,3.973L22.993,26.861
	z"/>
</svg>
